<svg xmlns="http://www.w3.org/2000/svg" viewBox="0 0 400 400" width="400" height="400">
  <!-- Red Medical Cross Background -->
  <path d="M 50 50 L 50 200 L 0 200 L 0 350 L 150 350 L 150 400 L 300 400 L 300 250 L 200 250 L 200 50 Z"
        fill="#E61050" />

  <!-- White Curved Accent -->
  <path d="M 200 50 Q 250 200, 350 400"
        stroke="white"
        stroke-width="15"
        fill="none"
        stroke-linecap="round"/>

  <!-- Blue Figure -->
  <g fill="#1565C0">
    <!-- Head -->
    <circle cx="280" cy="200" r="25"/>

    <!-- Body and Arms -->
    <path d="M 255 230 Q 280 240, 305 230 L 305 340 Q 280 350, 255 340 Z"/>

    <!-- Raised Arm -->
    <path d="M 280 240 L 330 140"
          stroke="#1565C0"
          stroke-width="20"
          stroke-linecap="round"/>
  </g>

  <!-- Star -->
  <g fill="#E61050">
    <path d="M 360 130 L 367 145 L 383 145 L 370 155 L 375 170 L 360 160 L 345 170 L 350 155 L 337 145 L 353 145 Z"/>
  </g>
</svg>
